
<svg width="898.824034px" height="103.217846px" viewBox="0 0 898.824034 103.217846" version="1.1" xmlns="http://www.w3.org/2000/svg" xmlns:xlink="http://www.w3.org/1999/xlink">
    <g id="Page-1" stroke="none" stroke-width="1" fill="none" fill-rule="evenodd">
        <g id="logo" fill-rule="nonzero">
            <path d="M0,73.5478459 C3.85,66.8678459 5.65,59.3478459 8.82,52.3778459 C9.6,50.6578459 8.65,49.2078459 7.98,47.7178459 C5.76666667,42.7978459 3.57,37.8911792 1.39,32.9978459 C3.03,32.1278459 4.64,32.7078459 6.15,33.2878459 C21.07,39.0078459 36.33,43.8178459 51.15,49.8878459 C51.5911052,50.1249749 51.9658292,50.4687584 52.24,50.8878459 C52.3463998,51.38515 52.2130957,51.9035549 51.88,52.2878459 C45.08,56.9178459 37.25,59.4278459 29.94,62.9978459 C20.52,67.5378459 11.03,71.9378459 1.38,75.9978459 C0.874302265,76.0428052 0.373133616,75.8721174 0,75.5278459 L0,73.5478459 Z" id="Path" fill="#606161"></path>
            <path d="M102.83,69.4678459 C98.23,72.6478459 92.9,74.4078459 87.91,76.8278459 C85.7836794,77.6881848 84.1917539,79.506468 83.62,81.7278459 C81.55,88.9378459 79.16,96.0578459 76.89,103.217846 L75.89,103.217846 C75.5633333,102.844513 75.23,102.464513 74.89,102.077846 C67.69,86.8678459 60.4,71.6678459 53.36,56.3578459 C52.69,54.8878459 51.79,53.4178459 52.71,51.7078459 C53.0852578,51.3522575 53.5531489,51.1096473 54.06,51.0078459 C62.01,52.1578459 69.06,56.1178459 76.56,58.5278459 C83.8,60.8578459 90.88,63.6778459 98.07,66.1678459 C100,66.8278459 101.79,67.5878459 102.83,69.4678459 Z" id="Path" fill="#FAB029"></path>
            <path d="M51.91,50.8478459 L11.22,36.4478459 L1.39,32.9978459 C5.65,29.5578459 10.94,28.1078459 15.79,25.8278459 C18.0680535,24.8980387 19.8105977,22.9977484 20.54,20.6478459 C22.88,13.8378459 25.54,7.1378459 28.05,0.397845901 C30.34,0.497845901 30.86,2.4478459 31.61,3.9678459 C38.53,17.8878459 44.44,32.2878459 51.37,46.2078459 C52.08,47.5978459 52.8,49.1678459 51.91,50.8478459 Z" id="Path" fill="#E7BE21"></path>
            <path d="M51.91,50.8478459 C44,33.9978459 37.07,16.6878459 28.05,0.357845901 C31.18,-0.842154099 33.69,1.2578459 35.92,2.5078459 C46.76,8.5978459 57.27,9.6478459 67.83,2.0478459 C68.65,1.4578459 69.68,0.607845901 70.94,1.3178459 C71.49,3.8678459 70.56,6.1978459 69.68,8.4878459 C64.68,21.3978459 60.12,34.4378459 55.27,47.3878459 C54.9192783,48.666923 54.2560526,49.8387362 53.34,50.7978459 C52.9449982,51.1648879 52.3503053,51.2144457 51.9,50.9178459 L51.91,50.8478459 Z" id="Path" fill="#F8E200"></path>
            <path d="M52.79,50.7878459 L70.94,1.3178459 C74.09,5.5178459 75.73,10.4778459 77.94,15.1278459 C78.8341425,17.2331116 80.61904,18.8310896 82.81,19.4878459 C90,21.9078459 97,24.6878459 104.12,27.3478459 C104.237336,27.4294104 104.30515,27.5650384 104.300274,27.7078459 C104.300274,27.8478459 104.1,27.9578459 103.99,28.0778459 C99.28,32.1878459 93.19,33.6978459 87.72,36.2978459 C76.56,41.6078459 65.42,46.9978459 53.91,51.5678459 L53.46,51.5678459 L53,51.5678459 C52.66,51.4578459 52.51,51.3078459 52.56,51.0978459 C52.61,50.8878459 52.7,50.7878459 52.79,50.7878459 Z" id="Path" fill="#D92729"></path>
            <path d="M53.91,51.5678459 C57.18,48.3678459 61.54,47.0278459 65.53,45.1478459 C77.53,39.5078459 89.53,34.1478459 101.62,28.7078459 C102.391845,28.4346887 103.184397,28.2240103 103.99,28.0778459 C101.62,34.6478459 99.41,41.2878459 96.82,47.7678459 C95.6728631,50.4608648 95.797712,53.5270071 97.16,56.1178459 C99.16,60.5178459 102.16,64.5378459 102.83,69.4678459 L53.91,51.5678459 Z" id="Path" fill="#B22C31"></path>
            <path d="M33.87,101.377846 C30.41,97.7678459 29.07,93.0078459 27.18,88.6278459 C25.9566553,85.4366628 23.235487,83.0561084 19.91,82.2678459 C13.51,80.2678459 7.28,77.8278459 0.97,75.5678459 C5.71,71.7878459 11.59,70.2678459 16.97,67.7178459 C28.48,62.2278459 40.17,57.0978459 51.78,51.8178459 C53.22,53.9278459 52.06,55.8178459 51.34,57.8178459 C46.6733333,70.2178459 42.0966667,82.6545126 37.61,95.1278459 C36.9093557,97.4928045 35.6229322,99.6425764 33.87,101.377846 L33.87,101.377846 Z" id="Path" fill="#242323"></path>
            <path d="M33.87,101.377846 C39.3833333,86.4178459 44.8866667,71.4545126 50.38,56.4878459 C50.94,54.9678459 51.3,53.3778459 51.75,51.8178459 C51.8891656,51.5396904 51.9414305,51.2261008 51.9,50.9178459 C52.1873114,50.8250559 52.4881515,50.781113 52.79,50.7878459 C52.9473581,51.0273225 53.0211843,51.3120805 53,51.5978459 C54.25,56.5378459 56.82,60.9478459 58.93,65.5278459 C64.2,76.9978459 69.72,88.3378459 75.09,99.7478459 C75.4221432,100.659166 75.6665839,101.600095 75.82,102.557846 C69.09,99.9578459 62.31,97.4578459 55.65,94.6978459 C53.5965822,93.7366351 51.2158431,93.7698033 49.19,94.7878459 C44.11,96.9978459 39.33,99.9978459 33.87,101.377846 Z" id="Path" fill="#F89625"></path>
            <path d="M652.23,49.8278459 L652.23,15.2378459 C652.23,1.2878459 652.23,1.3678459 637.75,2.3578459 C634.75,2.5578459 633.75,3.5778459 633.87,6.5378459 C634.07,13.2878459 633.87,20.0478459 633.98,26.7978459 C634.04,29.3778459 633.5,30.1178459 630.65,29.7478459 C607.07,26.6378459 590.02,41.2278459 589.57,64.7478459 C589.21,83.7478459 599.41,95.7478459 618.44,98.5478459 C628.44,100.037846 638.26,98.4778459 648.07,96.5478459 C651.31,95.9078459 652.35,94.6878459 652.31,91.4078459 C652.13,77.4978459 652.23,63.6678459 652.23,49.8278459 Z M628.9,83.5178459 C611.09,84.8278459 607.28,72.9078459 609.61,58.7378459 C611.44,47.5778459 617.93,43.1478459 629.17,43.7978459 C632.57,43.9878459 634.27,44.9278459 634.02,48.7978459 C633.68,53.8678459 633.93,58.9778459 633.93,64.0778459 C633.93,68.8478459 633.62,73.6378459 634.03,78.3678459 C634.39,82.4678459 632.43,83.2578459 628.9,83.5178459 Z" id="Shape" fill="#FFFFFF"></path>
            <path d="M707.77,32.2478459 C695.57,26.2478459 683.18,27.4378459 672.77,36.2478459 C661.14,46.1278459 659.58,59.5978459 662.03,73.7878459 C664.24,86.6478459 673.32,95.7878459 686.18,98.1378459 C694.383402,99.5996893 702.797106,99.3956383 710.92,97.5378459 C720.82,95.3478459 721.13,94.7178459 717.92,85.1678459 C716.92,82.0778459 715.8,80.7378459 711.92,81.9978459 C705.45,84.0978459 698.65,84.9978459 691.78,83.4578459 C686.21,82.1878459 682.08,79.3478459 680.35,73.6978459 C679.52,70.9978459 679.73,69.4278459 683.35,69.5978459 C689.35,69.8578459 695.35,69.6678459 701.35,69.6678459 C706.68,69.6678459 712.05,69.2278459 717.35,69.7878459 C722.4,70.3278459 723.5,68.2078459 723.56,63.8678459 C723.7,50.6178459 720.82,38.6278459 707.77,32.2478459 Z M702.71,56.7378459 C699.41,56.5178459 696.08,56.6878459 692.71,56.6878459 C689.891359,56.5376973 687.066227,56.5577337 684.25,56.7478459 C679.3,57.3478459 679.59,55.0978459 680.92,51.7478459 C683.3,45.6978459 687.73,42.9078459 694.55,43.4478459 C700.38,43.9078459 703.72,47.1778459 705.22,53.3578459 C705.87,55.8178459 705.71,56.9378459 702.71,56.7378459 L702.71,56.7378459 Z" id="Shape" fill="#FFFFFF"></path>
            <path d="M230.53,29.2078459 C215.74,27.1378459 202.92,33.0578459 196.82,44.9378459 C193.35,51.6978459 192.38,58.9378459 192.68,66.4878459 C193.68,92.4878459 213.46,103.487846 235.68,97.5378459 C249.79,93.7978459 257.54,81.6078459 257.56,63.7978459 C257.95,60.8678459 257.12,57.4778459 256.56,54.0878459 C254.13,40.5078459 244.26,31.1278459 230.53,29.2078459 Z M237,75.3878459 C235,81.9778459 231.64,84.5478459 225.29,84.6078459 C218.94,84.6678459 215.22,82.1978459 213.29,75.7778459 C210.771797,67.9178171 210.898247,59.449186 213.65,51.6678459 C215.72,45.8878459 219.18,43.6678459 225.35,43.7878459 C231.14,43.8578459 234.55,46.2078459 236.61,51.6578459 C237.070634,52.8806814 237.405692,54.1471995 237.61,55.4378459 C238.06,58.3478459 238.37,61.2778459 238.74,64.1978459 C238.636095,67.9864698 238.051417,71.7465563 237,75.3878459 L237,75.3878459 Z" id="Shape" fill="#FFFFFF"></path>
            <path d="M324.52,63.1378459 L324.52,42.8678459 C324.52,29.2278459 324.52,29.3678459 310.57,29.8678459 C306.68,30.0178459 305.57,31.1678459 305.57,35.0678459 C305.81,49.7278459 305.68,64.3878459 305.64,79.0678459 C305.64,80.5678459 306.3,82.2878459 304.01,83.1778459 C294.66,86.8078459 285.2,81.0678459 284.52,71.1778459 C284.39,69.1778459 284.39,67.1778459 284.39,65.2578459 C284.39,54.8778459 284.28,44.4878459 284.44,34.1178459 C284.44,31.1178459 283.55,29.8878459 280.52,29.9778459 C276.52,30.1078459 272.52,30.0778459 268.52,29.9778459 C266.2,29.9778459 265.32,30.8578459 265.35,33.2278459 C265.51,46.7378459 265.14,60.2278459 265.76,73.7478459 C266.37,86.8978459 273.55,95.3078459 285.47,97.7478459 C297.81,100.307846 310,98.9978459 322,95.7078459 C324.35,95.0678459 324.58,93.7778459 324.56,91.8078459 C324.48,82.2478459 324.52,72.6878459 324.52,63.1378459 Z" id="Path" fill="#FFFFFF"></path>
            <path d="M575.83,29.9978459 C572.342322,30.1778784 568.847678,30.1778784 565.36,29.9978459 C561.74,29.7778459 561.01,31.3878459 561.04,34.6678459 C561.2,49.3278459 561.14,63.9878459 561.04,78.6678459 C561.04,80.1478459 561.83,81.9178459 559.79,83.0178459 C552.73,86.8378459 541.79,82.1378459 540.2,74.3478459 C538.2,64.2378459 539.48,53.9878459 539.34,43.7978459 C539.12,28.4178459 539.28,28.4178459 523.77,30.1078459 C523.603491,30.1180931 523.436509,30.1180931 523.27,30.1078459 C521.27,30.1078459 520.27,30.8978459 520.32,33.1078459 C520.75,47.7478459 519.32,62.4378459 521.32,77.0378459 C522.8,88.0378459 529.96,95.8078459 540.86,97.9378459 C552.99,100.297846 564.97,99.0178459 576.86,95.8478459 C579.45,95.1578459 579.7,93.6978459 579.69,91.5378459 C579.63,81.9778459 579.69,72.4178459 579.69,62.8678459 C579.69,53.3178459 579.6,43.7578459 579.750089,34.1978459 C579.76,31.2378459 578.93,29.8778459 575.83,29.9978459 Z" id="Path" fill="#FFFFFF"></path>
            <path d="M187.89,17.2878459 C192.09,17.7678459 193.18,16.2378459 193.69,12.8978459 C193.88,11.5978459 194.2,10.3178459 194.43,9.0278459 C195.49,3.1878459 195.16,2.7378459 189.26,1.7178459 C170.74,-1.4821541 156.26,8.7178459 156.02,25.5778459 C155.96,30.3678459 154.28,31.0078459 150.32,30.7278459 C148.55,30.5978459 145.68,29.4578459 145.06,31.9378459 C144.11,35.7578459 143.8,40.0578459 145.21,43.6478459 C146.21,46.3178459 149.98,44.7878459 152.44,44.7378459 C155.44,44.6778459 155.95,45.7378459 155.9,48.4278459 C155.73,55.8378459 155.84,63.2478459 155.84,70.6678459 L155.84,85.4878459 C155.84,98.9478459 157.06,99.9378459 170.66,98.1278459 C173.66,97.7278459 174.77,96.6678459 174.71,93.4578459 C174.48,81.6078459 174.55,69.7478459 174.66,57.8878459 C174.66,53.6578459 172.85,48.2478459 175.47,45.5878459 C177.47,43.5878459 182.99,44.9678459 186.94,44.8478459 C187.44,44.8478459 187.94,44.8478459 188.44,44.8478459 C189.6,44.8478459 190.44,44.3278459 190.44,43.1778459 C190.66,39.2678459 191.86,34.9278459 189.83,31.5878459 C188.42,29.2478459 184.58,30.9578459 181.83,30.6678459 C180.336608,30.5278306 178.833392,30.5278306 177.34,30.6678459 C175.12,30.8578459 174.58,29.9078459 174.52,27.8078459 C174.34,19.5578459 178.1,16.1478459 187.89,17.2878459 Z" id="Path" fill="#FFFFFF"></path>
            <path d="M421.91,83.0478459 C413.34,84.8178459 409.51,81.2978459 409.35,72.4878459 C409.26,67.2178459 409.3,61.9478459 409.35,56.6778459 C409.35,52.9178459 408.09,48.0478459 409.97,45.6778459 C411.97,43.1678459 417.13,44.7978459 420.87,44.9278459 C424.31,45.0478459 425.87,44.0378459 425.47,40.5578459 C425.35,39.4178459 425.54,38.2578459 425.53,37.1078459 C425.53,30.6178459 425.53,30.6178459 419.08,30.6178459 C416.92,30.6178459 414.74,30.4578459 412.6,30.6178459 C409.88,30.8678459 409.2,29.7178459 409.29,27.2178459 C409.45,22.1178459 409.29,17.0278459 409.29,10.5478459 L382,44.8478459 C383.115326,44.9252286 384.234674,44.9252286 385.35,44.8478459 C389.67,44.0578459 390.94,45.6578459 390.74,50.0478459 C390.33,58.7578459 390.5,67.5078459 390.64,76.2278459 C390.86,89.2278459 397.23,96.3678459 410.2,98.0578459 C412.851616,98.4224168 415.537252,98.4694154 418.2,98.1978459 C429.62,96.9578459 428.08,98.2578459 427.5,87.1978459 C427.23,83.7678459 426.27,82.1378459 421.91,83.0478459 Z" id="Path" fill="#FFFFFF"></path>
            <path d="M504.94,83.0878459 C496.71,84.6478459 492.63,81.1778459 492.34,72.8878459 C492.16,67.6278459 492.26,62.3578459 492.34,57.0978459 C492.34,53.1778459 491.06,48.0978459 493.04,45.6678459 C495.02,43.2378459 500.49,45.1678459 504.41,44.8378459 C505.67,44.7278459 507.68,45.4778459 508.02,44.0578459 C508.97,40.0578459 509.4,35.7078459 508.02,31.8778459 C507.08,29.2078459 503.6,30.9678459 501.28,30.6878459 C499.285895,30.4706793 497.274105,30.4706793 495.28,30.6878459 C492.79,30.9178459 492.18,29.8478459 492.28,27.5578459 C492.42,22.3978459 492.28,17.2278459 492.28,10.7578459 L465.08,44.8678459 C466.13219,44.9372656 467.18781,44.9372656 468.24,44.8678459 C472.91,43.9878459 473.98,46.0578459 473.8,50.4178459 C473.44,58.6278459 473.58,66.8678459 473.72,75.0878459 C473.96,89.3478459 479.72,96.1578459 493.08,98.0878459 C495.730305,98.4654756 498.416715,98.5192037 501.08,98.2478459 C512.08,97.0878459 512.08,98.4778459 510.51,86.7178459 C510,82.7878459 508.53,82.4078459 504.94,83.0878459 Z" id="Path" fill="#FFFFFF"></path>
            <path d="M376.49,33.4178459 C376.71,30.9078459 375.61,30.1278459 373.07,29.8578459 C365,28.9978459 359,32.4378459 353.61,39.1678459 C353.36,29.9978459 353.36,29.9878459 345.06,29.8578459 C343.57,29.8578459 342.06,30.0278459 340.58,29.9178459 C336.82,29.6378459 335.45,30.9178459 335.52,34.9778459 C335.77,51.5978459 335.62,68.2378459 335.62,84.8678459 C335.62,99.7078459 335.62,99.7078459 350.73,98.1578459 C350.9,98.1578459 351.06,98.1578459 351.23,98.1578459 C353.68,98.1578459 354.7,97.0778459 354.56,94.4978459 C354.35,90.3878459 354.39,86.2678459 354.56,82.1478459 C354.85,73.9478459 353.62,65.6778459 355.47,57.5378459 C356.92,50.9978459 361,47.2778459 367.27,46.7678459 C376.57,46.0078459 376.57,46.0078459 376.52,36.3878459 C376.460069,35.3989801 376.450056,34.4077206 376.49,33.4178459 L376.49,33.4178459 Z" id="Path" fill="#FFFFFF"></path>
            <path d="M460.56,64.1178459 C460.56,54.2278459 460.45,44.3478459 460.62,34.4678459 C460.68,31.5278459 460.04,30.4678459 456.83,30.5578459 C450.685124,30.9128826 444.524876,30.9128826 438.38,30.5578459 C434.1,30.2578459 432.65,31.9878459 432.79,35.7178459 C432.89,38.5078459 432.56,41.6078459 433.7,43.9578459 C434.76,46.1578459 437.91,44.7678459 440.1,44.8178459 C443.35,44.8878459 442.3,47.1178459 442.3,48.6478459 C442.37,61.1678459 442.3,73.6478459 442.3,86.1978459 C442.3,99.1978459 442.46,99.3578459 455.78,98.1978459 C456.11,98.1978459 456.45,98.1278459 456.78,98.1178459 C459.59,98.0078459 460.66,96.8078459 460.6,93.7978459 C460.42,83.8778459 460.56,73.9978459 460.56,64.1178459 Z" id="Path" fill="#FFFFFF"></path>
            <path d="M786.65,77.6078459 C786.34,72.9978459 787.04,67.2478459 786.03,61.4878459 C784.96,55.4278459 781.44,51.6778459 775.68,50.1778459 C769.29,48.5178459 762.86,49.2478459 756.44,50.7078459 C753.2,51.4378459 754.17,53.2278459 754.68,55.1478459 C755.19,57.0678459 755.14,59.0278459 758.41,57.9878459 C761.877785,56.7821506 765.575353,56.3853718 769.22,56.8278459 C773.45,57.4678459 776.81,59.0978459 777.32,64.0278459 C777.59,66.6578459 776.93,67.4678459 774.1,67.1278459 C768.807108,66.3600098 763.405411,67.1814018 758.58,69.4878459 C752.46,72.4878459 749.78,77.8578459 750.77,85.0378459 C751.61,91.1178459 755.66,94.9778459 762.21,96.3278459 C769.58,97.8378459 776.74,96.5878459 783.97,95.3278459 C786.11,94.9578459 786.71,94.0278459 786.68,92.0678459 C786.6,87.6378459 786.65,83.1878459 786.65,77.6078459 Z M768.93,89.4478459 C762.5,89.3578459 759.93,87.3178459 759.83,82.3678459 C759.73,77.4178459 762.71,74.6678459 768.83,74.3678459 L769.83,74.3678459 C777.36,74.1778459 777.36,74.1778459 777.36,81.4678459 C777.39,89.5778459 777.39,89.5778459 768.93,89.4478459 Z" id="Shape" fill="#FFFFFF"></path>
            <path d="M898.79,90.5678459 C898.54,86.4678459 898.73,82.3478459 898.73,78.2278459 L898.68,78.2278459 C898.68,73.6278459 898.83,69.0078459 898.68,64.4078459 C898.39,56.7478459 894.42,51.5978459 887.47,50.0378459 C881.38,48.6678459 875.32,49.3378459 869.21,50.5578459 C865.73,51.2478459 866.59,53.3778459 866.93,55.3278459 C867.27,57.2778459 867.63,59.0278459 870.77,57.9778459 C874.054417,56.8486805 877.544089,56.442746 881,56.7878459 C885.53,57.2978459 888.9,59.1278459 889.65,64.0578459 C890.02,66.4778459 889.65,67.6178459 886.6,67.1778459 C881.150892,66.2980795 875.563047,67.1222866 870.6,69.5378459 C864.6,72.5378459 861.9,78.0078459 862.82,85.1478459 C863.56,90.9278459 867.9,94.9878459 874.43,96.3178459 C881.26,97.7178459 887.92,96.5978459 894.69,95.6378459 C898.31,95.1378459 899,93.6878459 898.79,90.5678459 Z M888,88.9078459 C883.33,89.8178459 878,91.0678459 873.79,87.2078459 C869.94,83.6478459 871.62,77.3078459 876.68,75.1178459 C878.394245,74.5073957 880.213181,74.2456049 882.03,74.3478459 C889.75,74.0978459 889.76,74.1278459 889.76,82.0678459 C888.73,84.0478459 891.83,88.1578459 888,88.9078459 Z" id="Shape" fill="#FFFFFF"></path>
            <path d="M819.51,69.7778459 C816.87,68.8378459 814.18,68.0378459 811.57,67.0178459 C808.79,65.9278459 806.37,64.2178459 807.04,60.8478459 C807.71,57.4778459 810.64,56.9178459 813.57,56.7078459 C816.710263,56.3388935 819.893308,56.7016922 822.87,57.7678459 C825.87,59.0078459 826.32,57.3378459 827.04,55.0378459 C827.85,52.4778459 827.75,51.3078459 824.69,50.5878459 C819.383432,49.1862869 813.836229,48.950889 808.43,49.8978459 C802.55,51.0678459 798.43,55.1378459 797.86,60.2278459 C797.12,66.6478459 799.08,70.2278459 805.34,73.1478459 C808.01,74.4178459 810.84,75.3878459 813.62,76.4078459 C817.04,77.6578459 820.47,79.1978459 819.74,83.5278459 C819.01,87.8578459 815.34,88.9178459 811.53,89.3478459 C808.050846,89.7603158 804.523444,89.352781 801.23,88.1578459 C798.69,87.1578459 798.23,88.3178459 797.48,90.2578459 C796.15,93.5678459 796.64,95.5978459 800.48,96.0878459 L809.14,97.1978459 C812.873002,97.1834707 816.57379,96.5062908 820.07,95.1978459 C826.07,92.6878459 829.07,87.8878459 828.82,81.1978459 C828.67,75.6378459 825.7,71.9978459 819.51,69.7778459 Z" id="Path" fill="#FFFFFF"></path>
            <path d="M851.65,73.2678459 L851.65,61.4378459 C851.65,49.6278459 851.65,49.7078459 839.65,50.2778459 C837.24,50.3878459 836.29,51.1878459 836.48,53.3878459 C836.64,55.3078459 835.74,58.1378459 839.41,57.6378459 C842.77,57.1878459 842.65,59.2278459 842.64,61.5378459 C842.57,71.8978459 842.79,82.2478459 842.52,92.5978459 C842.41,96.4678459 844.52,96.2978459 847.12,96.3178459 C849.72,96.3378459 851.9,96.3178459 851.71,92.4978459 C851.42,86.0978459 851.65,79.6778459 851.65,73.2678459 Z" id="Path" fill="#FFFFFF"></path>
            <path d="M449.41,20.2178459 C460.7,19.9578459 459.41,21.5378459 459.34,10.5278459 C459.34,1.8178459 461.72,1.4078459 449.14,1.3578459 C439.28,1.3578459 439.14,1.3578459 439.36,11.0278459 C439.63,20.9978459 437.76,20.0878459 449.41,20.2178459 Z" id="Path" fill="#FFFFFF"></path>
            <path d="M735.64,85.267782 C731.34,85.267782 729.84,86.4178459 729.87,90.8178459 C729.9,95.2178459 731.23,96.4378459 735.61,96.4378459 C739.99,96.4378459 741.91,95.2978459 740.87,90.8478459 C741.92,86.4178459 740,85.2578459 735.64,85.267782 Z" id="Path" fill="#FFFFFF"></path>
            <path d="M845.64,40.8178459 C850.04,41.9178459 850.78,39.8178459 850.95,35.8778459 C851.15,31.2678459 848.89,31.0678459 845.28,30.8778459 C841.28,30.7178459 840.18,32.3178459 840.14,35.9378459 C840.09,39.9378459 841.4,41.8978459 845.64,40.8178459 Z" id="Path" fill="#FFFFFF"></path>
        </g>
    </g>
</svg>