<svg width="104.30052px" height="103.217846px" viewBox="0 0 104.30052 103.217846" version="1.1" xmlns="http://www.w3.org/2000/svg" xmlns:xlink="http://www.w3.org/1999/xlink">
    <g id="Page-1" stroke="none" stroke-width="1" fill="none" fill-rule="evenodd">
        <g id="logo" transform="translate(-98, -218)" fill-rule="nonzero">
            <path d="M98,291.547846 C101.85,284.867846 103.65,277.347846 106.82,270.377846 C107.6,268.657846 106.65,267.207846 105.98,265.717846 C103.766667,260.797846 101.57,255.891179 99.39,250.997846 C101.03,250.127846 102.64,250.707846 104.15,251.287846 C119.07,257.007846 134.33,261.817846 149.15,267.887846 C149.591105,268.124975 149.965829,268.468758 150.24,268.887846 C150.3464,269.38515 150.213096,269.903555 149.88,270.287846 C143.08,274.917846 135.25,277.427846 127.94,280.997846 C118.52,285.537846 109.03,289.937846 99.38,293.997846 C98.8743023,294.042805 98.3731336,293.872117 98,293.527846 L98,291.547846 Z" id="Path" fill="#606161"></path>
            <path d="M200.83,287.467846 C196.23,290.647846 190.9,292.407846 185.91,294.827846 C183.783679,295.688185 182.191754,297.506468 181.62,299.727846 C179.55,306.937846 177.16,314.057846 174.89,321.217846 L173.89,321.217846 C173.563333,320.844513 173.23,320.464513 172.89,320.077846 C165.69,304.867846 158.4,289.667846 151.36,274.357846 C150.69,272.887846 149.79,271.417846 150.71,269.707846 C151.085258,269.352258 151.553149,269.109647 152.06,269.007846 C160.01,270.157846 167.06,274.117846 174.56,276.527846 C181.8,278.857846 188.88,281.677846 196.07,284.167846 C198,284.827846 199.79,285.587846 200.83,287.467846 Z" id="Path" fill="#FAB029"></path>
            <path d="M149.91,268.847846 L109.22,254.447846 L99.39,250.997846 C103.65,247.557846 108.94,246.107846 113.79,243.827846 C116.068054,242.898039 117.810598,240.997748 118.54,238.647846 C120.88,231.837846 123.54,225.137846 126.05,218.397846 C128.34,218.497846 128.86,220.447846 129.61,221.967846 C136.53,235.887846 142.44,250.287846 149.37,264.207846 C150.08,265.597846 150.8,267.167846 149.91,268.847846 Z" id="Path" fill="#E7BE21"></path>
            <path d="M149.91,268.847846 C142,251.997846 135.07,234.687846 126.05,218.357846 C129.18,217.157846 131.69,219.257846 133.92,220.507846 C144.76,226.597846 155.27,227.647846 165.83,220.047846 C166.65,219.457846 167.68,218.607846 168.94,219.317846 C169.49,221.867846 168.56,224.197846 167.68,226.487846 C162.68,239.397846 158.12,252.437846 153.27,265.387846 C152.919278,266.666923 152.256053,267.838736 151.34,268.797846 C150.944998,269.164888 150.350305,269.214446 149.9,268.917846 L149.91,268.847846 Z" id="Path" fill="#F8E200"></path>
            <path d="M150.79,268.787846 L168.94,219.317846 C172.09,223.517846 173.73,228.477846 175.94,233.127846 C176.834143,235.233112 178.61904,236.83109 180.81,237.487846 C188,239.907846 195,242.687846 202.12,245.347846 C202.237336,245.42941 202.30515,245.565038 202.300274,245.707846 C202.300274,245.847846 202.1,245.957846 201.99,246.077846 C197.28,250.187846 191.19,251.697846 185.72,254.297846 C174.56,259.607846 163.42,264.997846 151.91,269.567846 L151.46,269.567846 L151,269.567846 C150.66,269.457846 150.51,269.307846 150.56,269.097846 C150.61,268.887846 150.7,268.787846 150.79,268.787846 Z" id="Path" fill="#D92729"></path>
            <path d="M151.91,269.567846 C155.18,266.367846 159.54,265.027846 163.53,263.147846 C175.53,257.507846 187.53,252.147846 199.62,246.707846 C200.391845,246.434689 201.184397,246.22401 201.99,246.077846 C199.62,252.647846 197.41,259.287846 194.82,265.767846 C193.672863,268.460865 193.797712,271.527007 195.16,274.117846 C197.16,278.517846 200.16,282.537846 200.83,287.467846 L151.91,269.567846 Z" id="Path" fill="#B22C31"></path>
            <path d="M131.87,319.377846 C128.41,315.767846 127.07,311.007846 125.18,306.627846 C123.956655,303.436663 121.235487,301.056108 117.91,300.267846 C111.51,298.267846 105.28,295.827846 98.97,293.567846 C103.71,289.787846 109.59,288.267846 114.97,285.717846 C126.48,280.227846 138.17,275.097846 149.78,269.817846 C151.22,271.927846 150.06,273.817846 149.34,275.817846 C144.673333,288.217846 140.096667,300.654513 135.61,313.127846 C134.909356,315.492804 133.622932,317.642576 131.87,319.377846 L131.87,319.377846 Z" id="Path" fill="#242323"></path>
            <path d="M131.87,319.377846 C137.383333,304.417846 142.886667,289.454513 148.38,274.487846 C148.94,272.967846 149.3,271.377846 149.75,269.817846 C149.889166,269.53969 149.941431,269.226101 149.9,268.917846 C150.187311,268.825056 150.488151,268.781113 150.79,268.787846 C150.947358,269.027322 151.021184,269.312081 151,269.597846 C152.25,274.537846 154.82,278.947846 156.93,283.527846 C162.2,294.997846 167.72,306.337846 173.09,317.747846 C173.422143,318.659166 173.666584,319.600095 173.82,320.557846 C167.09,317.957846 160.31,315.457846 153.65,312.697846 C151.596582,311.736635 149.215843,311.769803 147.19,312.787846 C142.11,314.997846 137.33,317.997846 131.87,319.377846 Z" id="Path" fill="#F89625"></path>
        </g>
    </g>
</svg>